<svg xmlns="http://www.w3.org/2000/svg" xmlns:xlink="http://www.w3.org/1999/xlink" width="500" zoomAndPan="magnify" viewBox="0 0 375 374.999991" height="500" preserveAspectRatio="xMidYMid meet" version="1.0"><defs><clipPath id="ba02f33d35"><path d="M 87.53125 27.03125 L 280.28125 27.03125 L 280.28125 276 L 87.53125 276 Z M 87.53125 27.03125 " clip-rule="nonzero"/></clipPath><clipPath id="d1c15575a8"><path d="M 237.433594 189.789062 L 323.683594 189.789062 L 323.683594 276.039062 L 237.433594 276.039062 Z M 237.433594 189.789062 " clip-rule="nonzero"/></clipPath></defs><g clip-path="url(#ba02f33d35)"><path fill="#000000" d="M 280.28125 257.195312 C 280.28125 190.769531 237.097656 136.953125 183.90625 136.953125 C 130.714844 136.953125 87.53125 190.769531 87.53125 257.195312 C 87.53125 267.554688 130.714844 275.996094 183.90625 275.996094 C 237.097656 275.996094 280.28125 267.554688 280.28125 257.195312 Z M 183.90625 27.066406 C 212.921875 27.066406 236.421875 50.597656 236.421875 79.644531 C 236.421875 108.691406 212.921875 132.222656 183.90625 132.222656 C 154.894531 132.222656 131.390625 108.691406 131.390625 79.644531 C 131.390625 50.597656 154.894531 27.066406 183.90625 27.066406 Z M 183.90625 27.066406 " fill-opacity="1" fill-rule="evenodd"/></g><g clip-path="url(#d1c15575a8)"><path fill="#30b75d" d="M 323.683594 232.914062 C 323.683594 234.328125 323.613281 235.738281 323.476562 237.140625 C 323.335938 238.546875 323.128906 239.941406 322.855469 241.328125 C 322.578125 242.714844 322.234375 244.082031 321.828125 245.433594 C 321.417969 246.785156 320.941406 248.113281 320.402344 249.417969 C 319.859375 250.722656 319.257812 252 318.589844 253.246094 C 317.925781 254.488281 317.199219 255.699219 316.414062 256.875 C 315.628906 258.046875 314.789062 259.183594 313.894531 260.273438 C 313 261.367188 312.050781 262.410156 311.050781 263.410156 C 310.054688 264.40625 309.007812 265.355469 307.917969 266.25 C 306.824219 267.148438 305.691406 267.988281 304.515625 268.773438 C 303.34375 269.558594 302.132812 270.28125 300.886719 270.949219 C 299.640625 271.613281 298.367188 272.21875 297.0625 272.757812 C 295.757812 273.296875 294.429688 273.773438 293.078125 274.183594 C 291.726562 274.59375 290.355469 274.9375 288.972656 275.210938 C 287.585938 275.488281 286.191406 275.695312 284.785156 275.832031 C 283.378906 275.972656 281.96875 276.039062 280.558594 276.039062 C 279.144531 276.039062 277.738281 275.972656 276.332031 275.832031 C 274.925781 275.695312 273.53125 275.488281 272.144531 275.210938 C 270.757812 274.9375 269.390625 274.59375 268.039062 274.183594 C 266.6875 273.773438 265.359375 273.296875 264.054688 272.757812 C 262.75 272.21875 261.476562 271.613281 260.230469 270.949219 C 258.984375 270.28125 257.773438 269.558594 256.597656 268.773438 C 255.425781 267.988281 254.292969 267.148438 253.199219 266.25 C 252.109375 265.355469 251.0625 264.40625 250.0625 263.410156 C 249.066406 262.410156 248.117188 261.367188 247.222656 260.273438 C 246.324219 259.183594 245.484375 258.046875 244.699219 256.875 C 243.917969 255.699219 243.191406 254.488281 242.527344 253.246094 C 241.859375 252 241.257812 250.722656 240.714844 249.417969 C 240.175781 248.113281 239.699219 246.785156 239.289062 245.433594 C 238.878906 244.082031 238.539062 242.714844 238.261719 241.328125 C 237.988281 239.941406 237.78125 238.546875 237.640625 237.140625 C 237.503906 235.738281 237.433594 234.328125 237.433594 232.914062 C 237.433594 231.503906 237.503906 230.09375 237.640625 228.6875 C 237.78125 227.28125 237.988281 225.886719 238.261719 224.503906 C 238.539062 223.117188 238.878906 221.75 239.289062 220.398438 C 239.699219 219.046875 240.175781 217.71875 240.714844 216.410156 C 241.257812 215.105469 241.859375 213.832031 242.527344 212.585938 C 243.191406 211.339844 243.917969 210.128906 244.699219 208.957031 C 245.484375 207.78125 246.324219 206.648438 247.222656 205.558594 C 248.117188 204.464844 249.066406 203.421875 250.0625 202.421875 C 251.0625 201.421875 252.109375 200.476562 253.199219 199.578125 C 254.292969 198.683594 255.425781 197.84375 256.597656 197.058594 C 257.773438 196.273438 258.984375 195.546875 260.230469 194.882812 C 261.476562 194.214844 262.75 193.613281 264.054688 193.074219 C 265.359375 192.53125 266.6875 192.058594 268.039062 191.648438 C 269.390625 191.238281 270.757812 190.894531 272.144531 190.617188 C 273.53125 190.34375 274.925781 190.136719 276.332031 189.996094 C 277.738281 189.859375 279.144531 189.789062 280.558594 189.789062 C 281.96875 189.789062 283.378906 189.859375 284.785156 189.996094 C 286.191406 190.136719 287.585938 190.34375 288.972656 190.617188 C 290.355469 190.894531 291.726562 191.238281 293.078125 191.648438 C 294.429688 192.058594 295.757812 192.53125 297.0625 193.074219 C 298.367188 193.613281 299.640625 194.214844 300.886719 194.882812 C 302.132812 195.546875 303.34375 196.273438 304.515625 197.058594 C 305.691406 197.84375 306.824219 198.683594 307.917969 199.578125 C 309.007812 200.476562 310.054688 201.421875 311.050781 202.421875 C 312.050781 203.421875 313 204.464844 313.894531 205.558594 C 314.789062 206.648438 315.628906 207.78125 316.414062 208.957031 C 317.199219 210.128906 317.925781 211.339844 318.589844 212.585938 C 319.257812 213.832031 319.859375 215.105469 320.402344 216.410156 C 320.941406 217.71875 321.417969 219.046875 321.828125 220.398438 C 322.234375 221.75 322.578125 223.117188 322.855469 224.503906 C 323.128906 225.886719 323.335938 227.28125 323.476562 228.6875 C 323.613281 230.09375 323.683594 231.503906 323.683594 232.914062 Z M 323.683594 232.914062 " fill-opacity="1" fill-rule="nonzero"/></g><path fill="#ffffff" d="M 255.28125 235.238281 C 259.59375 239.980469 263.90625 244.726562 268.21875 249.46875 C 270.109375 251.558594 273.292969 251.160156 275.25 249.46875 C 284.175781 241.839844 293.128906 234.210938 302.054688 226.578125 C 303.316406 225.519531 304.574219 224.421875 305.835938 223.363281 C 307.894531 221.601562 307.628906 218.121094 305.835938 216.328125 C 303.8125 214.304688 300.859375 214.570312 298.804688 216.328125 C 289.878906 223.957031 280.921875 231.589844 272 239.21875 C 270.738281 240.28125 269.476562 241.375 268.21875 242.4375 C 270.574219 242.4375 272.894531 242.4375 275.25 242.4375 C 270.9375 237.691406 266.625 232.949219 262.3125 228.203125 C 260.523438 226.214844 257.105469 226.378906 255.28125 228.203125 C 253.324219 230.195312 253.488281 233.246094 255.28125 235.238281 Z M 255.28125 235.238281 " fill-opacity="1" fill-rule="nonzero"/></svg>