<svg xmlns="http://www.w3.org/2000/svg" xmlns:xlink="http://www.w3.org/1999/xlink" width="500" zoomAndPan="magnify" viewBox="0 0 375 374.999991" height="500" preserveAspectRatio="xMidYMid meet" version="1.0"><defs><clipPath id="4d71009bf5"><path d="M 68.308594 49.539062 L 335.988281 49.539062 L 335.988281 282.828125 L 68.308594 282.828125 Z M 68.308594 49.539062 " clip-rule="nonzero"/></clipPath><clipPath id="df14d24873"><path d="M 38.988281 62 L 302.117188 62 L 302.117188 325.421875 L 38.988281 325.421875 Z M 38.988281 62 " clip-rule="nonzero"/></clipPath></defs><g clip-path="url(#4d71009bf5)"><path fill="#299740" d="M 334.566406 53.042969 C 330.328125 51.941406 326.089844 50.84375 321.851562 49.746094 C 321.523438 49.5625 321.117188 49.484375 320.648438 49.574219 C 320.429688 49.597656 320.230469 49.65625 320.054688 49.746094 C 319.230469 50.011719 318.414062 50.304688 317.605469 50.605469 C 314.84375 51.632812 312.128906 52.753906 309.449219 53.949219 C 305.417969 55.746094 301.472656 57.703125 297.601562 59.773438 C 292.394531 62.558594 287.328125 65.5625 282.394531 68.738281 C 276.234375 72.703125 270.273438 76.9375 264.523438 81.394531 C 257.816406 86.597656 251.398438 92.109375 245.273438 97.882812 C 238.214844 104.53125 231.542969 111.53125 225.265625 118.808594 C 218.136719 127.070312 211.492188 135.671875 205.339844 144.566406 C 198.40625 154.59375 192.09375 164.980469 186.367188 175.628906 C 179.917969 187.621094 174.199219 199.945312 169.152344 212.488281 C 168.167969 214.929688 167.214844 217.382812 166.28125 219.839844 C 163.023438 217.296875 159.761719 214.757812 156.503906 212.214844 C 147.960938 205.554688 139.417969 198.894531 130.878906 192.230469 C 123.027344 186.109375 115.175781 179.988281 107.324219 173.867188 C 105.328125 172.3125 103.335938 170.757812 101.339844 169.203125 C 100.828125 168.804688 100.382812 168.421875 99.75 168.183594 C 97.773438 167.4375 95.722656 166.46875 93.664062 165.949219 C 92.882812 165.75 91.898438 166.019531 91.105469 166.140625 C 89.726562 166.355469 88.351562 166.566406 86.972656 166.777344 C 86.105469 166.910156 84.929688 166.902344 84.207031 167.417969 C 83.804688 167.699219 83.617188 168.0625 83.382812 168.449219 C 81.179688 172.050781 78.976562 175.65625 76.777344 179.257812 C 74.324219 183.269531 71.867188 187.285156 69.414062 191.300781 C 68.839844 192.238281 68.183594 193.019531 68.386719 194.152344 C 68.617188 195.464844 68.898438 196.777344 69.15625 198.089844 C 70.140625 203.105469 71.125 208.121094 72.109375 213.136719 C 72.414062 214.683594 72.648438 216.253906 73.019531 217.789062 C 73.238281 218.6875 73.90625 219.152344 74.792969 219.480469 C 75.570312 219.769531 76.347656 220.054688 77.117188 220.347656 C 77.390625 220.453125 77.667969 220.558594 77.941406 220.664062 C 78.089844 220.71875 78.242188 220.777344 78.390625 220.835938 C 78.46875 220.867188 78.546875 220.894531 78.625 220.925781 C 78.636719 220.929688 78.648438 220.933594 78.65625 220.9375 C 79.433594 221.238281 80.210938 221.542969 80.988281 221.851562 C 85.390625 223.597656 89.753906 225.425781 94.085938 227.316406 C 107.085938 232.996094 119.804688 239.253906 132.066406 246.1875 C 146.5 254.34375 160.410156 263.449219 172.753906 274.144531 C 175.710938 276.707031 178.570312 279.371094 181.3125 282.128906 C 182.257812 283.085938 184.226562 282.628906 184.53125 281.351562 C 184.910156 279.734375 185.34375 278.128906 185.78125 276.523438 C 186.992188 272.0625 188.308594 267.625 189.691406 263.207031 C 191.800781 256.476562 194.078125 249.789062 196.5 243.144531 C 199.578125 234.714844 202.890625 226.355469 206.445312 218.082031 C 210.527344 208.574219 214.9375 199.179688 219.6875 189.9375 C 224.90625 179.789062 230.535156 169.816406 236.640625 160.09375 C 243 149.960938 249.871094 140.09375 257.339844 130.613281 C 264.9375 120.972656 273.175781 111.75 282.121094 103.132812 C 291.082031 94.503906 300.757812 86.460938 311.207031 79.371094 C 316.484375 75.792969 321.949219 72.445312 327.597656 69.375 C 328.890625 68.671875 330.835938 68.042969 331.449219 66.726562 C 331.65625 66.28125 331.808594 65.804688 331.984375 65.34375 C 332.796875 63.257812 333.605469 61.167969 334.414062 59.078125 C 334.914062 57.789062 335.410156 56.5 335.910156 55.214844 C 336.261719 54.308594 335.511719 53.285156 334.566406 53.042969 " fill-opacity="1" fill-rule="nonzero"/></g><g clip-path="url(#df14d24873)"><path fill="#299740" d="M 276.410156 115.617188 C 271.121094 121.253906 265.972656 127.246094 261.023438 133.527344 C 260.882812 133.703125 260.746094 133.882812 260.605469 134.058594 C 271.964844 151.179688 278.589844 171.707031 278.589844 193.753906 C 278.589844 253.402344 230.109375 301.929688 170.523438 301.929688 C 110.933594 301.929688 62.457031 253.402344 62.457031 193.753906 C 62.457031 134.105469 110.933594 85.578125 170.523438 85.578125 C 193.246094 85.578125 214.351562 92.632812 231.769531 104.671875 C 235.132812 101.15625 238.570312 97.742188 242.054688 94.460938 C 244.347656 92.296875 246.683594 90.175781 249.046875 88.101562 C 240.621094 81.8125 231.484375 76.566406 221.726562 72.4375 C 205.5 65.566406 188.273438 62.085938 170.523438 62.085938 C 152.769531 62.085938 135.542969 65.566406 119.320312 72.4375 C 103.65625 79.070312 89.589844 88.5625 77.511719 100.648438 C 65.4375 112.738281 55.953125 126.820312 49.328125 142.5 C 42.46875 158.738281 38.988281 175.984375 38.988281 193.753906 C 38.988281 211.523438 42.46875 228.769531 49.328125 245.007812 C 55.953125 260.6875 65.4375 274.769531 77.511719 286.859375 C 89.589844 298.945312 103.65625 308.4375 119.320312 315.070312 C 135.542969 321.941406 152.769531 325.421875 170.523438 325.421875 C 188.273438 325.421875 205.5 321.941406 221.726562 315.070312 C 237.390625 308.4375 251.457031 298.945312 263.53125 286.859375 C 275.605469 274.769531 285.089844 260.6875 291.714844 245.007812 C 298.574219 228.769531 302.058594 211.523438 302.058594 193.753906 C 302.058594 175.984375 298.574219 158.738281 291.714844 142.5 C 287.664062 132.910156 282.539062 123.917969 276.410156 115.617188 " fill-opacity="1" fill-rule="nonzero"/></g></svg>