<svg xmlns="http://www.w3.org/2000/svg" xmlns:xlink="http://www.w3.org/1999/xlink" width="500" zoomAndPan="magnify" viewBox="0 0 375 374.999991" height="500" preserveAspectRatio="xMidYMid meet" version="1.0"><defs><clipPath id="618d16f49e"><path d="M 98 70.5 L 218 70.5 L 218 190 L 98 190 Z M 98 70.5 " clip-rule="nonzero"/></clipPath><clipPath id="46f3ea796b"><path d="M 39 201 L 277 201 L 277 313.5 L 39 313.5 Z M 39 201 " clip-rule="nonzero"/></clipPath></defs><g clip-path="url(#618d16f49e)"><path fill="#000000" d="M 217.027344 130 C 217.027344 97.421875 190.488281 70.921875 157.863281 70.921875 C 125.238281 70.921875 98.699219 97.421875 98.699219 130 C 98.699219 162.566406 125.238281 189.070312 157.863281 189.070312 C 190.488281 189.070312 217.027344 162.566406 217.027344 130 Z M 119.222656 130 C 119.222656 108.71875 136.554688 91.410156 157.863281 91.410156 C 179.171875 91.410156 196.507812 108.71875 196.507812 130 C 196.507812 151.269531 179.171875 168.578125 157.863281 168.578125 C 136.554688 168.578125 119.222656 151.269531 119.222656 130 Z M 119.222656 130 " fill-opacity="1" fill-rule="nonzero"/></g><g clip-path="url(#46f3ea796b)"><path fill="#000000" d="M 39.59375 295.609375 C 39.59375 305.777344 47.875 314.039062 58.054688 314.039062 L 257.679688 314.039062 C 267.859375 314.039062 276.132812 305.777344 276.132812 295.609375 C 276.132812 243.636719 233.78125 201.34375 181.726562 201.34375 L 133.996094 201.34375 C 81.941406 201.34375 39.59375 243.636719 39.59375 295.609375 Z M 133.996094 221.835938 L 181.726562 221.835938 C 221.777344 221.835938 254.492188 253.820312 255.582031 293.550781 L 60.144531 293.550781 C 61.242188 253.820312 93.945312 221.835938 133.996094 221.835938 Z M 133.996094 221.835938 " fill-opacity="1" fill-rule="nonzero"/></g><path fill="#000000" d="M 337.144531 168.578125 L 293.71875 168.578125 L 293.71875 125.21875 C 293.71875 119.554688 289.128906 114.972656 283.460938 114.972656 C 277.789062 114.972656 273.199219 119.554688 273.199219 125.21875 L 273.199219 168.578125 L 229.78125 168.578125 C 224.109375 168.578125 219.523438 173.160156 219.523438 178.824219 C 219.523438 184.484375 224.109375 189.070312 229.78125 189.070312 L 273.199219 189.070312 L 273.199219 232.429688 C 273.199219 238.09375 277.789062 242.675781 283.460938 242.675781 C 289.128906 242.675781 293.71875 238.09375 293.71875 232.429688 L 293.71875 189.070312 L 337.144531 189.070312 C 342.816406 189.070312 347.40625 184.484375 347.40625 178.824219 C 347.40625 173.160156 342.816406 168.578125 337.144531 168.578125 Z M 337.144531 168.578125 " fill-opacity="1" fill-rule="nonzero"/></svg>