<svg xmlns="http://www.w3.org/2000/svg" xmlns:xlink="http://www.w3.org/1999/xlink" width="500" zoomAndPan="magnify" viewBox="0 0 375 374.999991" height="500" preserveAspectRatio="xMidYMid meet" version="1.0"><path fill="#040606" d="M 156.714844 111.652344 L 156.714844 80.046875 C 156.714844 70.566406 145.640625 65.824219 139.316406 72.144531 L 30.191406 170.125 C 20.703125 178.023438 20.703125 193.828125 30.191406 201.730469 L 139.316406 302.867188 C 145.640625 309.191406 156.714844 304.449219 156.714844 294.96875 L 156.714844 253.882812 C 156.714844 241.65625 166.769531 231.753906 179.007812 231.757812 C 265.890625 231.785156 310.136719 255.476562 335.425781 279.164062 C 343.332031 285.488281 354.402344 277.582031 351.238281 268.101562 C 316.445312 182.765625 245.277344 140.097656 178.855469 133.777344 C 166.203125 133.777344 156.714844 124.296875 156.714844 111.652344 " fill-opacity="1" fill-rule="nonzero"/></svg>