<svg xmlns="http://www.w3.org/2000/svg" xmlns:xlink="http://www.w3.org/1999/xlink" width="500" zoomAndPan="magnify" viewBox="0 0 375 374.999991" height="500" preserveAspectRatio="xMidYMid meet" version="1.0"><defs><clipPath id="930bd1f7d4"><path d="M 23 25 L 354 25 L 354 355.171875 L 23 355.171875 Z M 23 25 " clip-rule="nonzero"/></clipPath></defs><path fill="#1a1a1a" d="M 34.902344 136.003906 L 29.46875 138.820312 C 24.109375 141.605469 22.011719 148.226562 24.796875 153.582031 L 37.082031 177.210938 C 39.867188 182.570312 46.496094 184.660156 51.859375 181.882812 L 57.324219 179.042969 C 58.523438 178.417969 59.410156 178.910156 59.941406 179.433594 C 60.472656 179.957031 60.980469 180.832031 60.375 182.039062 L 57.621094 187.546875 C 54.921875 192.949219 57.121094 199.535156 62.527344 202.234375 L 86.359375 214.132812 C 88.976562 215.4375 91.949219 215.648438 94.722656 214.722656 C 97.5 213.796875 99.75 211.847656 101.054688 209.230469 L 103.796875 203.746094 C 104.398438 202.542969 105.398438 202.414062 106.144531 202.53125 C 106.882812 202.640625 107.804688 203.050781 108.027344 204.382812 L 109.035156 210.429688 C 109.515625 213.3125 111.089844 215.839844 113.46875 217.539062 C 115.347656 218.882812 117.554688 219.582031 119.816406 219.582031 C 120.421875 219.582031 121.03125 219.53125 121.636719 219.433594 L 147.941406 215.066406 C 150.828125 214.585938 153.355469 213.011719 155.058594 210.632812 C 156.761719 208.25 157.433594 205.351562 156.953125 202.464844 L 155.945312 196.4375 C 155.726562 195.105469 156.464844 194.417969 157.128906 194.074219 C 157.789062 193.730469 158.78125 193.519531 159.742188 194.464844 L 164.109375 198.761719 C 168.414062 202.992188 175.363281 202.9375 179.605469 198.636719 L 198.3125 179.644531 C 202.550781 175.339844 202.492188 168.394531 198.1875 164.164062 L 193.835938 159.882812 C 192.875 158.933594 193.070312 157.941406 193.402344 157.273438 C 193.734375 156.609375 194.414062 155.855469 195.75 156.058594 L 201.785156 156.964844 C 204.671875 157.398438 207.570312 156.683594 209.925781 154.945312 C 212.28125 153.207031 213.816406 150.660156 214.25 147.765625 L 218.214844 121.414062 C 219.113281 115.445312 214.984375 109.859375 209.011719 108.960938 L 202.953125 108.050781 C 201.617188 107.847656 201.191406 106.929688 201.070312 106.195312 C 200.945312 105.460938 201.054688 104.453125 202.253906 103.832031 L 207.679688 101.015625 C 210.277344 99.667969 212.195312 97.390625 213.078125 94.601562 C 213.960938 91.8125 213.703125 88.84375 212.351562 86.25 L 200.054688 62.613281 C 197.269531 57.257812 190.644531 55.160156 185.277344 57.945312 L 179.839844 60.769531 C 178.644531 61.390625 177.753906 60.902344 177.222656 60.378906 C 176.691406 59.855469 176.183594 58.980469 176.789062 57.773438 L 179.53125 52.289062 C 180.839844 49.671875 181.050781 46.707031 180.121094 43.929688 C 179.195312 41.15625 177.246094 38.910156 174.625 37.601562 L 150.796875 25.707031 C 148.175781 24.394531 145.207031 24.1875 142.429688 25.113281 C 139.652344 26.039062 137.40625 27.988281 136.097656 30.601562 L 133.34375 36.105469 C 132.742188 37.3125 131.738281 37.433594 130.996094 37.324219 C 130.261719 37.214844 129.335938 36.804688 129.113281 35.472656 L 128.101562 29.398438 C 127.621094 26.515625 126.046875 23.988281 123.664062 22.289062 C 121.285156 20.589844 118.382812 19.917969 115.496094 20.394531 L 89.210938 24.769531 C 86.324219 25.25 83.796875 26.824219 82.09375 29.203125 C 80.390625 31.585938 79.71875 34.484375 80.203125 37.367188 L 81.207031 43.398438 C 81.429688 44.730469 80.6875 45.417969 80.027344 45.761719 C 79.363281 46.101562 78.375 46.316406 77.410156 45.367188 L 73.042969 41.078125 C 68.738281 36.84375 61.789062 36.898438 57.550781 41.199219 L 38.839844 60.191406 C 34.605469 64.496094 34.660156 71.441406 38.964844 75.675781 L 43.316406 79.953125 C 44.28125 80.902344 44.085938 81.894531 43.75 82.5625 C 43.417969 83.226562 42.734375 83.972656 41.40625 83.777344 L 35.367188 82.871094 C 29.410156 81.964844 23.800781 86.097656 22.902344 92.070312 L 18.9375 118.421875 C 18.042969 124.390625 22.167969 129.976562 28.140625 130.875 L 34.199219 131.785156 C 35.535156 131.988281 35.960938 132.90625 36.082031 133.640625 C 36.207031 134.375 36.101562 135.382812 34.902344 136.003906 Z M 36.054688 119.472656 L 31.484375 118.785156 L 35 95.40625 L 39.550781 96.089844 C 45.96875 97.0625 51.996094 93.929688 54.898438 88.125 C 57.800781 82.324219 56.683594 75.628906 52.058594 71.078125 L 48.777344 67.855469 L 65.375 51.007812 L 68.667969 54.246094 C 73.296875 58.796875 80.007812 59.800781 85.769531 56.8125 C 91.53125 53.820312 94.566406 47.75 93.496094 41.351562 L 92.738281 36.804688 L 116.054688 32.929688 L 116.820312 37.519531 C 117.886719 43.917969 122.722656 48.675781 129.144531 49.640625 C 135.5625 50.613281 141.589844 47.480469 144.492188 41.675781 L 146.570312 37.515625 L 167.710938 48.070312 L 165.640625 52.207031 C 162.738281 58.011719 163.851562 64.703125 168.480469 69.253906 C 173.109375 73.804688 179.824219 74.8125 185.585938 71.820312 L 189.6875 69.6875 L 200.601562 90.660156 L 196.507812 92.78125 C 190.746094 95.769531 187.710938 101.839844 188.777344 108.238281 C 189.839844 114.640625 194.675781 119.398438 201.097656 120.363281 L 205.667969 121.050781 L 202.152344 144.429688 L 197.601562 143.746094 C 191.183594 142.777344 185.15625 145.90625 182.253906 151.710938 C 179.351562 157.515625 180.46875 164.203125 185.09375 168.757812 L 188.371094 171.984375 L 171.777344 188.832031 L 168.484375 185.589844 C 163.855469 181.039062 157.140625 180.035156 151.378906 183.027344 C 145.621094 186.019531 142.585938 192.085938 143.65625 198.488281 L 144.410156 203.027344 L 121.078125 206.902344 L 120.320312 202.34375 C 119.253906 195.941406 114.417969 191.183594 107.996094 190.21875 C 107.222656 190.101562 106.457031 190.042969 105.699219 190.042969 C 100.171875 190.042969 95.203125 193.078125 92.648438 198.183594 L 90.582031 202.320312 L 69.441406 191.765625 L 71.523438 187.609375 C 74.421875 181.804688 73.308594 175.113281 68.683594 170.5625 C 64.054688 166.011719 57.34375 165 51.578125 167.992188 L 47.449219 170.136719 L 36.550781 149.179688 L 40.640625 147.054688 C 46.40625 144.066406 49.441406 138 48.375 131.597656 C 47.3125 125.195312 42.476562 120.4375 36.054688 119.472656 Z M 36.054688 119.472656 " fill-opacity="1" fill-rule="nonzero"/><path fill="#1a1a1a" d="M 93.394531 170.277344 C 101.332031 174.238281 109.898438 176.242188 118.523438 176.242188 C 124.523438 176.242188 130.550781 175.273438 136.40625 173.320312 C 150.683594 168.558594 162.25 158.53125 168.972656 145.078125 C 175.699219 131.628906 176.78125 116.363281 172.019531 102.101562 C 167.257812 87.835938 157.21875 76.277344 143.757812 69.558594 C 130.296875 62.835938 115.019531 61.757812 100.746094 66.515625 C 86.472656 71.273438 74.90625 81.304688 68.179688 94.753906 C 54.292969 122.523438 65.605469 156.402344 93.394531 170.277344 Z M 79.328125 100.320312 C 87.003906 84.96875 102.535156 76.078125 118.648438 76.078125 C 125.230469 76.078125 131.910156 77.5625 138.1875 80.699219 C 148.675781 85.933594 156.492188 94.933594 160.199219 106.042969 C 163.90625 117.152344 163.066406 129.039062 157.828125 139.515625 C 152.589844 149.988281 143.582031 157.800781 132.464844 161.507812 C 121.34375 165.214844 109.449219 164.371094 98.964844 159.136719 C 77.324219 148.332031 68.511719 121.949219 79.328125 100.320312 Z M 79.328125 100.320312 " fill-opacity="1" fill-rule="nonzero"/><g clip-path="url(#930bd1f7d4)"><path fill="#1a1a1a" d="M 352.375 75.308594 C 351.710938 72.386719 349.507812 70.050781 346.625 69.21875 C 343.746094 68.386719 340.640625 69.1875 338.523438 71.304688 L 303.703125 106.097656 L 281.125 97.808594 L 272.832031 75.246094 L 307.648438 40.453125 C 309.769531 38.335938 310.570312 35.234375 309.738281 32.359375 C 308.90625 29.476562 306.566406 27.273438 303.636719 26.609375 C 282.148438 21.761719 259.929688 28.03125 244.203125 43.367188 C 233.945312 53.367188 227.453125 66.179688 225.425781 80.421875 C 224.941406 83.824219 227.3125 86.976562 230.71875 87.460938 C 234.128906 87.953125 237.277344 85.578125 237.761719 82.175781 C 239.398438 70.679688 244.636719 60.34375 252.90625 52.28125 C 263.65625 41.796875 278.152344 36.574219 292.898438 37.585938 L 262.839844 67.621094 C 260.125 70.335938 259.234375 74.410156 260.5625 77.988281 L 269.84375 103.234375 C 270.84375 105.953125 272.976562 108.085938 275.695312 109.082031 L 300.964844 118.359375 C 304.558594 119.683594 308.625 118.789062 311.335938 116.082031 L 341.398438 86.042969 C 342.445312 100.992188 337.042969 115.671875 326.230469 126.476562 C 314.457031 138.242188 297.601562 143.707031 281.128906 141.101562 C 269.816406 139.308594 258.195312 143.101562 250.050781 151.246094 L 175.65625 225.582031 C 175.648438 225.589844 175.644531 225.597656 175.640625 225.601562 L 149.867188 251.355469 C 141.722656 259.492188 137.917969 271.046875 139.691406 282.261719 C 142.347656 299.066406 136.734375 316.117188 124.671875 327.878906 C 113.917969 338.363281 99.414062 343.597656 84.675781 342.574219 L 114.734375 312.535156 C 117.453125 309.824219 118.34375 305.746094 117.015625 302.167969 L 107.730469 276.925781 C 106.734375 274.203125 104.597656 272.070312 101.882812 271.074219 L 76.613281 261.796875 C 73.015625 260.472656 68.949219 261.367188 66.238281 264.074219 L 36.179688 294.113281 C 35.128906 279.164062 40.53125 264.484375 51.34375 253.679688 C 58.773438 246.257812 68.128906 241.296875 78.402344 239.335938 C 81.785156 238.691406 84 235.429688 83.355469 232.054688 C 82.710938 228.675781 79.433594 226.460938 76.066406 227.105469 C 63.328125 229.535156 51.734375 235.679688 42.535156 244.875 C 26.753906 260.640625 20.273438 283.058594 25.199219 304.84375 C 25.859375 307.769531 28.0625 310.105469 30.945312 310.9375 C 33.828125 311.773438 36.933594 310.972656 39.050781 308.851562 L 73.875 274.058594 L 96.449219 282.347656 L 104.746094 304.910156 L 69.925781 339.699219 C 67.804688 341.820312 67.003906 344.921875 67.835938 347.800781 C 68.671875 350.679688 71.007812 352.882812 73.941406 353.546875 C 78.722656 354.625 83.542969 355.152344 88.320312 355.152344 C 104.996094 355.152344 121.144531 348.710938 133.371094 336.789062 C 148.324219 322.214844 155.289062 301.105469 152 280.316406 C 150.847656 273.027344 153.34375 265.492188 158.675781 260.160156 L 189.214844 229.640625 C 189.222656 229.636719 189.226562 229.628906 189.234375 229.621094 L 258.859375 160.050781 C 264.195312 154.714844 271.796875 152.226562 279.179688 153.402344 C 299.574219 156.628906 320.457031 149.855469 335.039062 135.28125 C 350.820312 119.515625 357.300781 97.097656 352.375 75.308594 Z M 352.375 75.308594 " fill-opacity="1" fill-rule="nonzero"/></g></svg>