<svg xmlns="http://www.w3.org/2000/svg" xmlns:xlink="http://www.w3.org/1999/xlink" width="500" zoomAndPan="magnify" viewBox="0 0 375 374.999991" height="500" preserveAspectRatio="xMidYMid meet" version="1.0"><defs><clipPath id="c11f7c5fe4"><path d="M 51.738281 86 L 337.488281 86 L 337.488281 290 L 51.738281 290 Z M 51.738281 86 " clip-rule="nonzero"/></clipPath></defs><g clip-path="url(#c11f7c5fe4)"><path fill="#040606" d="M 267.800781 166.953125 L 221.859375 121.039062 C 213.894531 113.082031 213.945312 100.152344 221.882812 92.214844 C 229.851562 84.230469 242.789062 84.257812 250.726562 92.191406 L 331.246094 172.65625 C 331.425781 172.832031 331.628906 173.035156 331.804688 173.238281 C 335.332031 176.890625 337.488281 181.859375 337.488281 187.335938 C 337.488281 189.71875 337.082031 192.023438 336.320312 194.152344 C 335.382812 197.246094 333.707031 200.160156 331.246094 202.621094 L 250.726562 283.085938 C 242.789062 291.019531 229.851562 291.019531 221.882812 283.0625 C 213.945312 275.101562 213.894531 262.171875 221.859375 254.234375 L 268.386719 207.714844 L 72.183594 207.714844 C 60.898438 207.714844 51.738281 198.566406 51.738281 187.335938 C 51.738281 176.078125 60.847656 166.925781 72.183594 166.925781 L 267.800781 166.953125 " fill-opacity="1" fill-rule="nonzero"/></g></svg>