<svg xmlns="http://www.w3.org/2000/svg" xmlns:xlink="http://www.w3.org/1999/xlink" width="500" zoomAndPan="magnify" viewBox="0 0 375 374.999991" height="500" preserveAspectRatio="xMidYMid meet" version="1.0"><defs><clipPath id="79bed939cb"><path d="M 51.996094 85 L 337.746094 85 L 337.746094 289 L 51.996094 289 Z M 51.996094 85 " clip-rule="nonzero"/></clipPath></defs><g clip-path="url(#79bed939cb)"><path fill="#040606" d="M 121.683594 208.046875 L 167.625 253.957031 C 175.589844 261.917969 175.539062 274.847656 167.601562 282.78125 C 159.632812 290.769531 146.695312 290.742188 138.757812 282.808594 L 58.238281 202.34375 C 58.058594 202.164062 57.855469 201.964844 57.679688 201.761719 C 54.152344 198.109375 51.996094 193.140625 51.996094 187.664062 C 51.996094 185.28125 52.402344 182.976562 53.164062 180.84375 C 54.101562 177.753906 55.777344 174.835938 58.238281 172.378906 L 138.757812 91.914062 C 146.695312 83.976562 159.632812 83.976562 167.601562 91.9375 C 175.539062 99.898438 175.589844 112.828125 167.625 120.761719 L 121.101562 167.28125 L 317.300781 167.28125 C 328.589844 167.28125 337.746094 176.433594 337.746094 187.664062 C 337.746094 198.921875 328.640625 208.074219 317.300781 208.074219 L 121.683594 208.046875 " fill-opacity="1" fill-rule="nonzero"/></g></svg>