<svg xmlns="http://www.w3.org/2000/svg" xmlns:xlink="http://www.w3.org/1999/xlink" width="500" zoomAndPan="magnify" viewBox="0 0 375 374.999991" height="500" preserveAspectRatio="xMidYMid meet" version="1.0"><defs><clipPath id="eba28eff85"><path d="M 87.53125 27.03125 L 280.28125 27.03125 L 280.28125 276 L 87.53125 276 Z M 87.53125 27.03125 " clip-rule="nonzero"/></clipPath></defs><rect x="-37.5" width="450" fill="#ffffff" y="-37.499999" height="449.999989" fill-opacity="1"/><rect x="-37.5" width="450" fill="#ffffff" y="-37.499999" height="449.999989" fill-opacity="1"/><rect x="-37.5" width="450" fill="#ffffff" y="-37.499999" height="449.999989" fill-opacity="1"/><g clip-path="url(#eba28eff85)"><path fill="#000000" d="M 280.28125 257.195312 C 280.28125 190.769531 237.097656 136.953125 183.90625 136.953125 C 130.714844 136.953125 87.53125 190.769531 87.53125 257.195312 C 87.53125 267.554688 130.714844 275.996094 183.90625 275.996094 C 237.097656 275.996094 280.28125 267.554688 280.28125 257.195312 Z M 183.90625 27.066406 C 212.921875 27.066406 236.421875 50.597656 236.421875 79.644531 C 236.421875 108.691406 212.921875 132.222656 183.90625 132.222656 C 154.894531 132.222656 131.390625 108.691406 131.390625 79.644531 C 131.390625 50.597656 154.894531 27.066406 183.90625 27.066406 Z M 183.90625 27.066406 " fill-opacity="1" fill-rule="evenodd"/></g></svg>