<svg xmlns="http://www.w3.org/2000/svg" xmlns:xlink="http://www.w3.org/1999/xlink" width="500" zoomAndPan="magnify" viewBox="0 0 375 374.999991" height="500" preserveAspectRatio="xMidYMid meet" version="1.0"><rect x="-37.5" width="450" fill="#ffffff" y="-37.499999" height="449.999989" fill-opacity="1"/><rect x="-37.5" width="450" fill="#ffffff" y="-37.499999" height="449.999989" fill-opacity="1"/><rect x="-37.5" width="450" fill="#ffffff" y="-37.499999" height="449.999989" fill-opacity="1"/><path fill="#ffffff" d="M 5.984375 5.988281 L 369.015625 5.988281 L 369.015625 369.011719 L 5.984375 369.011719 Z M 5.984375 5.988281 " fill-opacity="1" fill-rule="nonzero"/><path fill="#d1d2d2" d="M 22.914062 22.058594 L 22.246094 278.664062 L 22.054688 352.078125 L 352.078125 352.941406 L 352.214844 299.808594 L 352.9375 22.917969 Z M 22.914062 22.058594 " fill-opacity="1" fill-rule="nonzero"/><path fill="#d1d2d2" d="M 363.96875 11.945312 L 363.050781 363.972656 L 11.03125 363.054688 L 11.945312 11.03125 L 363.96875 11.945312 M 375 0.972656 L 364 0.945312 L 11.976562 0.0273438 L 0.972656 0 L 0.945312 11.003906 L 0.0273438 363.027344 L 0 374.027344 L 11 374.054688 L 363.027344 374.96875 L 374.023438 375 L 374.054688 364 L 374.96875 11.976562 Z M 375 0.972656 " fill-opacity="1" fill-rule="nonzero"/><path fill="#717273" d="M 299.9375 272.359375 C 261.164062 255.996094 227.558594 242.203125 227.558594 242.203125 C 227.558594 242.203125 227.558594 224.984375 227.558594 212.917969 C 227.558594 200.847656 247.382812 187.917969 247.382812 137.941406 C 247.382812 89.894531 225.046875 63.445312 189.632812 61.441406 C 189.632812 61.394531 189.632812 61.300781 189.632812 61.253906 C 188.902344 61.253906 188.210938 61.328125 187.496094 61.351562 C 186.757812 61.328125 186.074219 61.253906 185.335938 61.253906 C 185.335938 61.300781 185.335938 61.394531 185.335938 61.441406 C 149.925781 63.445312 127.589844 89.894531 127.589844 137.941406 C 127.589844 187.917969 147.414062 200.851562 147.414062 212.917969 C 147.414062 224.980469 147.414062 242.203125 147.414062 242.203125 C 147.414062 242.203125 113.808594 255.996094 75.027344 272.359375 C 36.242188 288.753906 22.476562 311.996094 22.476562 324.9375 C 22.476562 337.863281 22.476562 351.640625 22.476562 351.640625 L 352.5 351.640625 C 352.5 351.640625 352.5 337.863281 352.5 324.9375 C 352.507812 312 338.695312 288.753906 299.9375 272.359375 Z M 299.9375 272.359375 " fill-opacity="1" fill-rule="nonzero"/></svg>