<svg xmlns="http://www.w3.org/2000/svg" xmlns:xlink="http://www.w3.org/1999/xlink" width="500" zoomAndPan="magnify" viewBox="0 0 375 374.999991" height="500" preserveAspectRatio="xMidYMid meet" version="1.0"><defs><clipPath id="345c40029d"><path d="M 28.125 28.125 L 346.875 28.125 L 346.875 346.875 L 28.125 346.875 Z M 28.125 28.125 " clip-rule="nonzero"/></clipPath></defs><g clip-path="url(#345c40029d)"><path fill="#000000" d="M 335.207031 92.839844 L 282.152344 39.800781 C 280.308594 37.941406 278.300781 36.285156 276.125 34.828125 C 273.953125 33.367188 271.65625 32.140625 269.238281 31.136719 C 266.820312 30.136719 264.328125 29.378906 261.761719 28.875 C 259.191406 28.367188 256.601562 28.117188 253.984375 28.125 L 52.03125 28.125 C 51.25 28.125 50.46875 28.164062 49.6875 28.238281 C 48.910156 28.316406 48.136719 28.429688 47.367188 28.585938 C 46.597656 28.738281 45.839844 28.925781 45.089844 29.15625 C 44.34375 29.382812 43.605469 29.644531 42.882812 29.945312 C 42.160156 30.246094 41.453125 30.578125 40.761719 30.949219 C 40.070312 31.316406 39.402344 31.71875 38.75 32.152344 C 38.097656 32.589844 37.46875 33.054688 36.867188 33.550781 C 36.261719 34.046875 35.679688 34.574219 35.128906 35.128906 C 34.574219 35.679688 34.046875 36.261719 33.550781 36.867188 C 33.054688 37.46875 32.589844 38.097656 32.152344 38.75 C 31.71875 39.402344 31.316406 40.070312 30.949219 40.761719 C 30.578125 41.453125 30.246094 42.160156 29.945312 42.882812 C 29.644531 43.605469 29.382812 44.34375 29.15625 45.089844 C 28.925781 45.839844 28.738281 46.597656 28.585938 47.367188 C 28.429688 48.136719 28.316406 48.910156 28.238281 49.6875 C 28.164062 50.46875 28.125 51.25 28.125 52.03125 L 28.125 322.96875 C 28.125 323.75 28.164062 324.53125 28.238281 325.3125 C 28.316406 326.089844 28.429688 326.863281 28.585938 327.632812 C 28.738281 328.402344 28.925781 329.160156 29.15625 329.910156 C 29.382812 330.65625 29.644531 331.394531 29.945312 332.117188 C 30.246094 332.839844 30.578125 333.546875 30.949219 334.238281 C 31.316406 334.929688 31.71875 335.597656 32.152344 336.25 C 32.589844 336.902344 33.054688 337.53125 33.550781 338.132812 C 34.046875 338.738281 34.574219 339.320312 35.128906 339.871094 C 35.679688 340.425781 36.261719 340.953125 36.867188 341.449219 C 37.46875 341.945312 38.097656 342.410156 38.75 342.847656 C 39.402344 343.28125 40.070312 343.683594 40.761719 344.050781 C 41.453125 344.421875 42.160156 344.753906 42.882812 345.054688 C 43.605469 345.355469 44.34375 345.617188 45.089844 345.84375 C 45.839844 346.074219 46.597656 346.261719 47.367188 346.414062 C 48.136719 346.566406 48.910156 346.683594 49.6875 346.761719 C 50.46875 346.835938 51.25 346.875 52.03125 346.875 L 322.96875 346.875 C 323.75 346.875 324.53125 346.835938 325.3125 346.761719 C 326.089844 346.683594 326.863281 346.566406 327.632812 346.414062 C 328.402344 346.261719 329.160156 346.074219 329.910156 345.84375 C 330.65625 345.617188 331.394531 345.355469 332.117188 345.054688 C 332.839844 344.753906 333.546875 344.421875 334.238281 344.050781 C 334.929688 343.683594 335.597656 343.28125 336.25 342.847656 C 336.902344 342.410156 337.53125 341.945312 338.132812 341.449219 C 338.738281 340.953125 339.320312 340.425781 339.871094 339.871094 C 340.425781 339.320312 340.953125 338.738281 341.449219 338.132812 C 341.945312 337.53125 342.410156 336.902344 342.847656 336.25 C 343.28125 335.597656 343.683594 334.929688 344.050781 334.238281 C 344.421875 333.546875 344.753906 332.839844 345.054688 332.117188 C 345.355469 331.394531 345.617188 330.65625 345.84375 329.910156 C 346.074219 329.160156 346.261719 328.402344 346.414062 327.632812 C 346.566406 326.863281 346.683594 326.089844 346.761719 325.3125 C 346.835938 324.53125 346.875 323.75 346.875 322.96875 L 346.875 121.015625 C 346.882812 118.398438 346.632812 115.808594 346.125 113.238281 C 345.617188 110.671875 344.863281 108.179688 343.863281 105.761719 C 342.859375 103.34375 341.632812 101.046875 340.175781 98.871094 C 338.71875 96.695312 337.0625 94.6875 335.207031 92.839844 Z M 243.28125 44.0625 L 243.28125 115.78125 L 115.78125 115.78125 L 115.78125 44.0625 Z M 99.84375 330.9375 L 99.84375 235.3125 L 275.15625 235.3125 L 275.15625 330.9375 Z M 330.9375 322.96875 C 330.9375 323.492188 330.886719 324.011719 330.785156 324.523438 C 330.683594 325.035156 330.53125 325.535156 330.332031 326.019531 C 330.128906 326.5 329.886719 326.960938 329.59375 327.394531 C 329.304688 327.832031 328.972656 328.234375 328.601562 328.601562 C 328.234375 328.972656 327.832031 329.304688 327.394531 329.59375 C 326.960938 329.886719 326.5 330.128906 326.019531 330.332031 C 325.535156 330.53125 325.035156 330.683594 324.523438 330.785156 C 324.011719 330.886719 323.492188 330.9375 322.96875 330.9375 L 291.09375 330.9375 L 291.09375 235.3125 C 291.09375 234.789062 291.066406 234.269531 291.015625 233.75 C 290.964844 233.230469 290.890625 232.714844 290.789062 232.203125 C 290.6875 231.691406 290.558594 231.1875 290.40625 230.6875 C 290.257812 230.1875 290.082031 229.695312 289.878906 229.214844 C 289.679688 228.730469 289.457031 228.261719 289.210938 227.800781 C 288.964844 227.339844 288.699219 226.890625 288.40625 226.457031 C 288.117188 226.023438 287.808594 225.605469 287.476562 225.203125 C 287.144531 224.796875 286.792969 224.410156 286.425781 224.042969 C 286.054688 223.675781 285.671875 223.324219 285.265625 222.992188 C 284.863281 222.660156 284.445312 222.351562 284.011719 222.0625 C 283.578125 221.769531 283.128906 221.503906 282.667969 221.257812 C 282.207031 221.011719 281.738281 220.789062 281.253906 220.589844 C 280.773438 220.386719 280.28125 220.210938 279.78125 220.0625 C 279.28125 219.910156 278.777344 219.78125 278.265625 219.679688 C 277.753906 219.578125 277.238281 219.503906 276.71875 219.453125 C 276.199219 219.402344 275.679688 219.375 275.15625 219.375 L 99.84375 219.375 C 99.320312 219.375 98.800781 219.402344 98.28125 219.453125 C 97.761719 219.503906 97.246094 219.578125 96.734375 219.679688 C 96.222656 219.78125 95.71875 219.910156 95.21875 220.0625 C 94.71875 220.210938 94.226562 220.386719 93.746094 220.589844 C 93.261719 220.789062 92.792969 221.011719 92.332031 221.257812 C 91.871094 221.503906 91.421875 221.769531 90.988281 222.0625 C 90.554688 222.351562 90.136719 222.660156 89.734375 222.992188 C 89.328125 223.324219 88.941406 223.675781 88.574219 224.042969 C 88.207031 224.410156 87.855469 224.796875 87.523438 225.203125 C 87.191406 225.605469 86.882812 226.023438 86.59375 226.457031 C 86.300781 226.890625 86.035156 227.339844 85.789062 227.800781 C 85.542969 228.261719 85.320312 228.730469 85.121094 229.214844 C 84.917969 229.695312 84.742188 230.1875 84.59375 230.6875 C 84.441406 231.1875 84.3125 231.691406 84.210938 232.203125 C 84.109375 232.714844 84.035156 233.230469 83.984375 233.75 C 83.933594 234.269531 83.90625 234.789062 83.90625 235.3125 L 83.90625 330.9375 L 52.03125 330.9375 C 51.507812 330.9375 50.988281 330.886719 50.476562 330.785156 C 49.964844 330.683594 49.464844 330.53125 48.980469 330.332031 C 48.5 330.128906 48.039062 329.886719 47.605469 329.59375 C 47.167969 329.304688 46.765625 328.972656 46.398438 328.601562 C 46.027344 328.234375 45.695312 327.832031 45.40625 327.394531 C 45.113281 326.960938 44.871094 326.5 44.667969 326.019531 C 44.46875 325.535156 44.316406 325.035156 44.214844 324.523438 C 44.113281 324.011719 44.0625 323.492188 44.0625 322.96875 L 44.0625 52.03125 C 44.0625 51.507812 44.113281 50.988281 44.214844 50.476562 C 44.316406 49.964844 44.46875 49.464844 44.667969 48.980469 C 44.871094 48.5 45.113281 48.039062 45.40625 47.605469 C 45.695312 47.167969 46.027344 46.765625 46.398438 46.398438 C 46.765625 46.027344 47.167969 45.695312 47.605469 45.40625 C 48.039062 45.113281 48.5 44.871094 48.980469 44.667969 C 49.464844 44.46875 49.964844 44.316406 50.476562 44.214844 C 50.988281 44.113281 51.507812 44.0625 52.03125 44.0625 L 99.84375 44.0625 L 99.84375 115.78125 C 99.84375 116.304688 99.871094 116.824219 99.921875 117.34375 C 99.972656 117.863281 100.046875 118.378906 100.148438 118.890625 C 100.25 119.402344 100.378906 119.90625 100.53125 120.40625 C 100.679688 120.90625 100.855469 121.398438 101.058594 121.878906 C 101.257812 122.363281 101.480469 122.832031 101.726562 123.292969 C 101.972656 123.753906 102.238281 124.203125 102.53125 124.636719 C 102.820312 125.070312 103.128906 125.488281 103.460938 125.890625 C 103.792969 126.296875 104.144531 126.683594 104.511719 127.050781 C 104.878906 127.417969 105.265625 127.769531 105.671875 128.101562 C 106.074219 128.433594 106.492188 128.742188 106.925781 129.03125 C 107.359375 129.324219 107.808594 129.589844 108.269531 129.835938 C 108.730469 130.082031 109.199219 130.304688 109.683594 130.503906 C 110.164062 130.707031 110.65625 130.882812 111.15625 131.03125 C 111.65625 131.183594 112.160156 131.3125 112.671875 131.414062 C 113.183594 131.515625 113.699219 131.589844 114.21875 131.640625 C 114.738281 131.691406 115.257812 131.71875 115.78125 131.71875 L 243.28125 131.71875 C 243.804688 131.71875 244.324219 131.691406 244.84375 131.640625 C 245.363281 131.589844 245.878906 131.515625 246.390625 131.414062 C 246.902344 131.3125 247.40625 131.183594 247.90625 131.03125 C 248.40625 130.882812 248.898438 130.707031 249.378906 130.503906 C 249.863281 130.304688 250.332031 130.082031 250.792969 129.835938 C 251.253906 129.589844 251.703125 129.324219 252.136719 129.03125 C 252.570312 128.742188 252.988281 128.433594 253.390625 128.101562 C 253.796875 127.769531 254.183594 127.417969 254.550781 127.050781 C 254.917969 126.683594 255.269531 126.296875 255.601562 125.890625 C 255.933594 125.488281 256.242188 125.070312 256.53125 124.636719 C 256.824219 124.203125 257.089844 123.753906 257.335938 123.292969 C 257.582031 122.832031 257.804688 122.363281 258.003906 121.878906 C 258.207031 121.398438 258.382812 120.90625 258.53125 120.40625 C 258.683594 119.90625 258.8125 119.402344 258.914062 118.890625 C 259.015625 118.378906 259.089844 117.863281 259.140625 117.34375 C 259.191406 116.824219 259.21875 116.304688 259.21875 115.78125 L 259.21875 44.652344 C 261.425781 45.136719 263.523438 45.921875 265.507812 47.003906 C 267.492188 48.089844 269.285156 49.429688 270.886719 51.027344 L 323.941406 104.066406 C 325.054688 105.179688 326.050781 106.386719 326.925781 107.695312 C 327.800781 109.003906 328.539062 110.386719 329.140625 111.839844 C 329.738281 113.296875 330.191406 114.792969 330.492188 116.339844 C 330.796875 117.882812 330.945312 119.441406 330.9375 121.015625 Z M 330.9375 322.96875 " fill-opacity="1" fill-rule="nonzero"/></g><path fill="#000000" d="M 219.375 99.84375 C 219.898438 99.84375 220.417969 99.792969 220.929688 99.691406 C 221.441406 99.589844 221.941406 99.4375 222.425781 99.238281 C 222.90625 99.035156 223.367188 98.792969 223.800781 98.5 C 224.238281 98.210938 224.640625 97.878906 225.007812 97.507812 C 225.378906 97.140625 225.710938 96.738281 226 96.300781 C 226.292969 95.867188 226.535156 95.40625 226.738281 94.925781 C 226.9375 94.441406 227.089844 93.941406 227.191406 93.429688 C 227.292969 92.917969 227.34375 92.398438 227.34375 91.875 L 227.34375 67.96875 C 227.34375 67.445312 227.292969 66.925781 227.191406 66.414062 C 227.089844 65.902344 226.9375 65.402344 226.738281 64.917969 C 226.535156 64.4375 226.292969 63.976562 226 63.542969 C 225.710938 63.105469 225.378906 62.703125 225.007812 62.335938 C 224.640625 61.964844 224.238281 61.632812 223.800781 61.34375 C 223.367188 61.050781 222.90625 60.808594 222.425781 60.605469 C 221.941406 60.40625 221.441406 60.253906 220.929688 60.152344 C 220.417969 60.050781 219.898438 60 219.375 60 C 218.851562 60 218.332031 60.050781 217.820312 60.152344 C 217.308594 60.253906 216.808594 60.40625 216.324219 60.605469 C 215.84375 60.808594 215.382812 61.050781 214.949219 61.34375 C 214.511719 61.632812 214.109375 61.964844 213.738281 62.335938 C 213.371094 62.703125 213.039062 63.105469 212.75 63.542969 C 212.457031 63.976562 212.214844 64.4375 212.011719 64.917969 C 211.8125 65.402344 211.660156 65.902344 211.558594 66.414062 C 211.457031 66.925781 211.40625 67.445312 211.40625 67.96875 L 211.40625 91.875 C 211.40625 92.398438 211.457031 92.917969 211.558594 93.429688 C 211.660156 93.941406 211.8125 94.441406 212.011719 94.925781 C 212.214844 95.40625 212.457031 95.867188 212.75 96.300781 C 213.039062 96.738281 213.371094 97.140625 213.738281 97.507812 C 214.109375 97.878906 214.511719 98.210938 214.949219 98.5 C 215.382812 98.792969 215.84375 99.035156 216.324219 99.238281 C 216.808594 99.4375 217.308594 99.589844 217.820312 99.691406 C 218.332031 99.792969 218.851562 99.84375 219.375 99.84375 Z M 219.375 99.84375 " fill-opacity="1" fill-rule="nonzero"/></svg>