<svg xmlns="http://www.w3.org/2000/svg" xmlns:xlink="http://www.w3.org/1999/xlink" width="500" zoomAndPan="magnify" viewBox="0 0 375 374.999991" height="500" preserveAspectRatio="xMidYMid meet" version="1.0"><defs><g/><clipPath id="a638d33193"><path d="M 54.882812 65.464844 L 231.707031 65.464844 L 231.707031 229 L 54.882812 229 Z M 54.882812 65.464844 " clip-rule="nonzero"/></clipPath><clipPath id="023b7827d9"><path d="M 143.292969 65.464844 L 320.117188 65.464844 L 320.117188 229 L 143.292969 229 Z M 143.292969 65.464844 " clip-rule="nonzero"/></clipPath></defs><rect x="-37.5" width="450" fill="#ffffff" y="-37.499999" height="449.999989" fill-opacity="1"/><rect x="-37.5" width="450" fill="#ffffff" y="-37.499999" height="449.999989" fill-opacity="1"/><rect x="-37.5" width="450" fill="#faf3e3" y="-37.499999" height="449.999989" fill-opacity="1"/><g clip-path="url(#a638d33193)"><path fill="#000000" d="M 230.710938 115.796875 C 217.191406 127.890625 202.007812 138.117188 189.625 151.570312 C 176.234375 162.109375 163.363281 174.257812 157.097656 190.457031 C 153.949219 191.261719 150.648438 194.398438 151.835938 197.914062 C 146.894531 194.375 138.515625 198.519531 140.972656 204.984375 C 136.867188 201.734375 130.5 205.914062 130.910156 210.882812 C 122.878906 209.273438 110.085938 227.816406 106.84375 213.148438 C 110.863281 211.1875 112.875 206.492188 117.523438 205.929688 C 110.4375 205.695312 105.6875 216.972656 98.539062 209.816406 C 98.617188 208.523438 98.597656 207.234375 98.476562 205.945312 C 101.703125 203.285156 106.09375 200.53125 107.050781 196.199219 C 105.066406 199.386719 100.898438 201.78125 98.324219 204.484375 C 97.933594 199.796875 95.585938 195.421875 95.839844 190.6875 C 104.46875 185.203125 106.390625 174.707031 111.75 166.578125 C 108.832031 170.382812 105.878906 174.261719 104.128906 178.785156 C 101.742188 179.226562 99.324219 179.617188 96.917969 179.96875 C 93.335938 183.769531 87.273438 187.808594 82.136719 184.554688 C 85.390625 185.03125 89.566406 180.546875 86.574219 177.847656 C 90.671875 171.71875 96.320312 168.96875 103.085938 166.769531 C 112.582031 162.429688 122.394531 157.1875 133.15625 158.683594 C 144.160156 157.992188 150.246094 145.46875 158.222656 139.0625 C 180.003906 117.96875 192.769531 90.449219 209.261719 65.53125 C 198.722656 78.96875 191.386719 94.652344 181.625 108.605469 C 169.039062 125.835938 154.433594 142.171875 138.246094 155.992188 C 133.808594 148.078125 125.921875 142.996094 120.757812 135.839844 C 112.558594 113.84375 110.925781 89.789062 105.171875 67.039062 C 109.539062 90.082031 110.878906 114.597656 119.242188 136.617188 C 124.265625 143.882812 132.363281 148.78125 136.945312 156.542969 C 121.695312 155.363281 108.773438 162.5625 95.089844 168.191406 C 88.804688 170.972656 85.363281 177.632812 79.945312 181.863281 C 81.28125 172.304688 79.089844 162.398438 82.953125 153.292969 C 83.625 151.066406 84.644531 147.921875 85.527344 145.78125 C 85.003906 146.535156 84.503906 146.820312 84.308594 145.859375 L 84.300781 145.878906 C 78.382812 121.988281 67.464844 98.890625 54.882812 77.832031 C 65.976562 100.847656 77.511719 124.328125 83.886719 149.15625 C 80.757812 156.117188 79.082031 161.6875 79.480469 168.753906 C 79.957031 175.421875 76.804688 182.3125 79.859375 188.726562 C 84.683594 198.21875 82.445312 209.390625 79.703125 219.136719 C 76.636719 230.234375 97.414062 224.0625 98.40625 211.191406 C 100.441406 212.832031 103.148438 214.097656 105.828125 213.5 C 105.421875 216.941406 108.753906 219.761719 111.953125 220.132812 C 112.671875 226.988281 120.589844 226.117188 124.589844 222.636719 C 124.59375 222.636719 124.59375 222.632812 124.59375 222.628906 C 124.882812 232.148438 140.558594 229.886719 138.53125 220.738281 C 144.679688 223.15625 151.035156 217.839844 149.488281 211.359375 C 154.914062 213.078125 159.464844 206.796875 157.460938 201.839844 C 164.824219 200.757812 164.820312 190.589844 160.609375 186.132812 C 167.257812 172.476562 179.214844 162.269531 190.757812 152.789062 C 199.238281 144.683594 207.082031 135.96875 216.386719 128.796875 C 221.683594 124.386719 227.992188 120.269531 231.707031 114.363281 C 231.441406 114.886719 231.109375 115.363281 230.710938 115.796875 Z M 81.007812 183.058594 C 82.070312 180.847656 84.730469 179.699219 86.449219 177.960938 C 88.78125 180.824219 84.671875 184.601562 81.675781 184.203125 C 81.324219 183.917969 80.875 183.457031 81.007812 183.058594 Z M 97.539062 208.867188 C 97.964844 216.28125 87.148438 227.894531 80.867188 221.421875 C 84.890625 206.988281 86.355469 199.066406 80.273438 184.867188 C 85.925781 189.992188 93.886719 185.390625 97.976562 180.488281 C 99.835938 180.527344 101.683594 180.386719 103.515625 180.0625 C 102 183.671875 99.714844 186.695312 96.652344 189.128906 C 96.34375 188.84375 96.359375 188.296875 96.582031 187.789062 C 93.554688 194.535156 98.542969 201.804688 97.539062 208.867188 Z M 125.496094 218.222656 C 124.875 219.300781 124.5625 220.464844 124.566406 221.714844 C 120.800781 224.300781 114.054688 226.214844 112.828125 220.167969 C 119.882812 219.265625 123.5625 211.125 130.910156 210.898438 C 131.09375 212.734375 131.925781 214.425781 132.898438 215.9375 C 130.304688 215.570312 126.914062 215.601562 125.496094 218.222656 Z M 137.859375 223.882812 C 129.808594 236.933594 117.277344 215.269531 133.273438 216.484375 C 134.527344 218.28125 136.171875 219.96875 138.316406 220.65625 C 138.371094 221.738281 138.316406 222.917969 137.859375 223.882812 Z M 156.101562 206.652344 C 154.964844 209.820312 151.59375 211.480469 148.296875 210.886719 C 148.492188 210.992188 148.691406 211.082031 148.894531 211.15625 C 150.578125 219.71875 139.367188 223.167969 134.835938 216.398438 C 129.03125 211.472656 134.097656 201.167969 141.273438 205.757812 L 141.28125 205.757812 C 142.828125 207.960938 145.207031 209.398438 147.644531 210.339844 C 137.898438 205.480469 142.078125 194.144531 152.320312 199.113281 C 153.019531 200.660156 154.644531 201.621094 156.28125 201.804688 C 156.628906 203.429688 156.703125 205.210938 156.101562 206.652344 Z M 161.863281 191.257812 C 162.949219 211.691406 140.871094 192.667969 161.019531 190.304688 C 160.242188 190.132812 159.460938 190.085938 158.671875 190.171875 C 159.105469 189.320312 159.519531 188.472656 159.925781 187.609375 C 160.679688 188.863281 161.484375 190.003906 161.863281 191.257812 Z M 161.863281 191.257812 " fill-opacity="1" fill-rule="nonzero"/></g><path fill="#000000" d="M 118.046875 202.445312 C 120.226562 201.597656 123.148438 200.210938 123.394531 197.582031 C 122.351562 199.890625 119.882812 200.839844 118.046875 202.445312 Z M 118.046875 202.445312 " fill-opacity="1" fill-rule="nonzero"/><path fill="#000000" d="M 105.171875 192.894531 C 107.03125 193.914062 109.78125 193.941406 111.316406 192.308594 C 109.320312 193.207031 107.304688 193.105469 105.171875 192.894531 Z M 105.171875 192.894531 " fill-opacity="1" fill-rule="nonzero"/><path fill="#000000" d="M 152.003906 201.402344 C 150.507812 199.730469 149.921875 202.582031 148.871094 203.292969 C 151.683594 198.195312 154.046875 203.769531 151.65625 206.644531 C 148.269531 208.769531 141.011719 207.230469 148.171875 203.824219 C 147.160156 204.742188 145.410156 205.109375 144.585938 206.148438 C 147.359375 211.105469 156.335938 206.363281 152.003906 201.402344 Z M 152.003906 201.402344 " fill-opacity="1" fill-rule="nonzero"/><path fill="#000000" d="M 142.261719 208.132812 C 140.765625 205.519531 139.210938 209.941406 137.960938 210.777344 C 142.324219 203.902344 143.808594 210.191406 140.738281 213.519531 C 137.097656 216.34375 131.117188 214.394531 137.675781 211.03125 C 127.179688 216.757812 146.335938 217.367188 142.261719 208.132812 Z M 142.261719 208.132812 " fill-opacity="1" fill-rule="nonzero"/><path fill="#000000" d="M 134.40625 219.523438 C 133.363281 218.84375 133.445312 221.894531 132.515625 222.398438 C 135.535156 215.261719 135.160156 224.558594 131.78125 225.472656 C 130.53125 226.019531 128.589844 226.375 127.546875 225.316406 C 128.558594 224.15625 131.25 224.398438 132.277344 222.652344 C 131.03125 224.398438 128.847656 224.035156 127.28125 224.960938 C 129.363281 229.511719 137.019531 223.730469 134.40625 219.523438 Z M 134.40625 219.523438 " fill-opacity="1" fill-rule="nonzero"/><g clip-path="url(#023b7827d9)"><path fill="#000000" d="M 144.289062 115.796875 C 157.808594 127.890625 172.992188 138.117188 185.375 151.570312 C 198.765625 162.109375 211.636719 174.257812 217.902344 190.457031 C 221.050781 191.261719 224.351562 194.398438 223.164062 197.914062 C 228.105469 194.375 236.484375 198.519531 234.027344 204.984375 C 238.132812 201.734375 244.5 205.914062 244.089844 210.882812 C 252.121094 209.273438 264.914062 227.816406 268.15625 213.148438 C 264.136719 211.1875 262.125 206.492188 257.476562 205.929688 C 264.5625 205.695312 269.3125 216.972656 276.460938 209.816406 C 276.382812 208.523438 276.402344 207.234375 276.523438 205.945312 C 273.296875 203.285156 268.90625 200.53125 267.949219 196.199219 C 269.933594 199.386719 274.101562 201.78125 276.675781 204.484375 C 277.066406 199.796875 279.414062 195.421875 279.160156 190.6875 C 270.53125 185.203125 268.609375 174.707031 263.25 166.578125 C 266.167969 170.382812 269.121094 174.261719 270.871094 178.785156 C 273.257812 179.226562 275.675781 179.617188 278.082031 179.96875 C 281.664062 183.769531 287.726562 187.808594 292.863281 184.554688 C 289.609375 185.03125 285.433594 180.546875 288.425781 177.847656 C 284.328125 171.71875 278.679688 168.96875 271.914062 166.769531 C 262.417969 162.429688 252.605469 157.1875 241.84375 158.683594 C 230.839844 157.992188 224.753906 145.46875 216.777344 139.0625 C 194.996094 117.96875 182.230469 90.449219 165.738281 65.53125 C 176.277344 78.96875 183.613281 94.652344 193.375 108.605469 C 205.960938 125.835938 220.566406 142.171875 236.753906 155.992188 C 241.191406 148.078125 249.078125 142.996094 254.242188 135.839844 C 262.441406 113.84375 264.074219 89.789062 269.828125 67.039062 C 265.460938 90.082031 264.121094 114.597656 255.757812 136.617188 C 250.734375 143.882812 242.636719 148.78125 238.054688 156.542969 C 253.304688 155.363281 266.226562 162.5625 279.910156 168.191406 C 286.195312 170.972656 289.636719 177.632812 295.054688 181.863281 C 293.71875 172.304688 295.910156 162.398438 292.046875 153.292969 C 291.375 151.066406 290.355469 147.921875 289.472656 145.78125 C 289.996094 146.535156 290.496094 146.820312 290.691406 145.859375 L 290.699219 145.878906 C 296.617188 121.988281 307.535156 98.890625 320.117188 77.832031 C 309.023438 100.847656 297.488281 124.328125 291.113281 149.15625 C 294.242188 156.117188 295.917969 161.6875 295.519531 168.753906 C 295.042969 175.421875 298.195312 182.3125 295.140625 188.726562 C 290.316406 198.21875 292.554688 209.390625 295.296875 219.136719 C 298.363281 230.234375 277.585938 224.0625 276.59375 211.191406 C 274.558594 212.832031 271.851562 214.097656 269.171875 213.5 C 269.578125 216.941406 266.246094 219.761719 263.046875 220.132812 C 262.328125 226.988281 254.410156 226.117188 250.410156 222.636719 C 250.40625 222.636719 250.40625 222.632812 250.40625 222.628906 C 250.117188 232.148438 234.441406 229.886719 236.46875 220.738281 C 230.320312 223.15625 223.964844 217.839844 225.511719 211.359375 C 220.085938 213.078125 215.535156 206.796875 217.539062 201.839844 C 210.175781 200.757812 210.179688 190.589844 214.390625 186.132812 C 207.742188 172.476562 195.785156 162.269531 184.242188 152.789062 C 175.761719 144.683594 167.917969 135.96875 158.613281 128.796875 C 153.316406 124.386719 147.007812 120.269531 143.292969 114.363281 C 143.558594 114.886719 143.890625 115.363281 144.289062 115.796875 Z M 293.992188 183.058594 C 292.929688 180.847656 290.269531 179.699219 288.550781 177.960938 C 286.21875 180.824219 290.328125 184.601562 293.324219 184.203125 C 293.675781 183.917969 294.125 183.457031 293.992188 183.058594 Z M 277.460938 208.867188 C 277.035156 216.28125 287.851562 227.894531 294.132812 221.421875 C 290.109375 206.988281 288.644531 199.066406 294.726562 184.867188 C 289.074219 189.992188 281.113281 185.390625 277.023438 180.488281 C 275.164062 180.527344 273.316406 180.386719 271.484375 180.0625 C 273 183.671875 275.285156 186.695312 278.347656 189.128906 C 278.65625 188.84375 278.640625 188.296875 278.417969 187.789062 C 281.445312 194.535156 276.457031 201.804688 277.460938 208.867188 Z M 249.503906 218.222656 C 250.125 219.300781 250.4375 220.464844 250.433594 221.714844 C 254.199219 224.300781 260.945312 226.214844 262.171875 220.167969 C 255.117188 219.265625 251.4375 211.125 244.089844 210.898438 C 243.90625 212.734375 243.074219 214.425781 242.097656 215.9375 C 244.695312 215.570312 248.085938 215.601562 249.503906 218.222656 Z M 237.140625 223.882812 C 245.191406 236.933594 257.722656 215.269531 241.726562 216.484375 C 240.472656 218.28125 238.828125 219.96875 236.683594 220.65625 C 236.628906 221.738281 236.683594 222.917969 237.140625 223.882812 Z M 218.894531 206.652344 C 220.035156 209.820312 223.40625 211.480469 226.703125 210.886719 C 226.507812 210.992188 226.308594 211.082031 226.105469 211.15625 C 224.421875 219.71875 235.632812 223.167969 240.164062 216.398438 C 245.96875 211.472656 240.902344 201.167969 233.726562 205.757812 L 233.71875 205.757812 C 232.171875 207.960938 229.792969 209.398438 227.355469 210.339844 C 237.101562 205.480469 232.921875 194.144531 222.679688 199.113281 C 221.980469 200.660156 220.355469 201.621094 218.71875 201.804688 C 218.371094 203.429688 218.296875 205.210938 218.894531 206.652344 Z M 213.136719 191.257812 C 212.050781 211.691406 234.128906 192.667969 213.980469 190.304688 C 214.757812 190.132812 215.539062 190.085938 216.328125 190.171875 C 215.894531 189.320312 215.480469 188.472656 215.074219 187.609375 C 214.320312 188.863281 213.515625 190.003906 213.136719 191.257812 Z M 213.136719 191.257812 " fill-opacity="1" fill-rule="nonzero"/></g><path fill="#000000" d="M 256.953125 202.445312 C 254.773438 201.597656 251.851562 200.210938 251.605469 197.582031 C 252.648438 199.890625 255.117188 200.839844 256.953125 202.445312 Z M 256.953125 202.445312 " fill-opacity="1" fill-rule="nonzero"/><path fill="#000000" d="M 269.828125 192.894531 C 267.96875 193.914062 265.21875 193.941406 263.683594 192.308594 C 265.679688 193.207031 267.695312 193.105469 269.828125 192.894531 Z M 269.828125 192.894531 " fill-opacity="1" fill-rule="nonzero"/><path fill="#000000" d="M 222.996094 201.402344 C 224.492188 199.730469 225.078125 202.582031 226.128906 203.292969 C 223.316406 198.195312 220.953125 203.769531 223.34375 206.644531 C 226.730469 208.769531 233.988281 207.230469 226.828125 203.824219 C 227.839844 204.742188 229.589844 205.109375 230.414062 206.148438 C 227.640625 211.105469 218.664062 206.363281 222.996094 201.402344 Z M 222.996094 201.402344 " fill-opacity="1" fill-rule="nonzero"/><path fill="#000000" d="M 232.738281 208.132812 C 234.234375 205.519531 235.789062 209.941406 237.039062 210.777344 C 232.675781 203.902344 231.191406 210.191406 234.261719 213.519531 C 237.902344 216.34375 243.882812 214.394531 237.324219 211.03125 C 247.820312 216.757812 228.664062 217.367188 232.738281 208.132812 Z M 232.738281 208.132812 " fill-opacity="1" fill-rule="nonzero"/><path fill="#000000" d="M 240.59375 219.523438 C 241.636719 218.84375 241.554688 221.894531 242.484375 222.398438 C 239.464844 215.261719 239.839844 224.558594 243.21875 225.472656 C 244.46875 226.019531 246.410156 226.375 247.453125 225.316406 C 246.441406 224.15625 243.75 224.398438 242.722656 222.652344 C 243.96875 224.398438 246.152344 224.035156 247.71875 224.960938 C 245.636719 229.511719 237.980469 223.730469 240.59375 219.523438 Z M 240.59375 219.523438 " fill-opacity="1" fill-rule="nonzero"/><g fill="#000000" fill-opacity="1"><g transform="translate(0.727624, 345.972083)"><g><path d="M 3.609375 -41.890625 C 3.609375 -46.929688 4.519531 -51.914062 6.34375 -56.84375 C 8.164062 -61.769531 10.820312 -66.171875 14.3125 -70.046875 C 17.800781 -73.921875 22.066406 -77.0625 27.109375 -79.46875 C 32.148438 -81.875 37.890625 -83.078125 44.328125 -83.078125 C 51.929688 -83.078125 58.503906 -81.410156 64.046875 -78.078125 C 69.597656 -74.742188 73.734375 -70.398438 76.453125 -65.046875 L 64.109375 -56.546875 C 63.023438 -58.878906 61.707031 -60.835938 60.15625 -62.421875 C 58.601562 -64.015625 56.9375 -65.273438 55.15625 -66.203125 C 53.375 -67.140625 51.507812 -67.820312 49.5625 -68.25 C 47.625 -68.675781 45.726562 -68.890625 43.875 -68.890625 C 39.832031 -68.890625 36.316406 -68.070312 33.328125 -66.4375 C 30.347656 -64.8125 27.867188 -62.695312 25.890625 -60.09375 C 23.910156 -57.5 22.414062 -54.550781 21.40625 -51.25 C 20.394531 -47.957031 19.890625 -44.679688 19.890625 -41.421875 C 19.890625 -37.773438 20.472656 -34.265625 21.640625 -30.890625 C 22.804688 -27.515625 24.453125 -24.546875 26.578125 -21.984375 C 28.710938 -19.429688 31.273438 -17.378906 34.265625 -15.828125 C 37.253906 -14.273438 40.53125 -13.5 44.09375 -13.5 C 45.957031 -13.5 47.894531 -13.726562 49.90625 -14.1875 C 51.925781 -14.65625 53.847656 -15.394531 55.671875 -16.40625 C 57.492188 -17.414062 59.179688 -18.710938 60.734375 -20.296875 C 62.285156 -21.890625 63.53125 -23.8125 64.46875 -26.0625 L 77.609375 -18.5 C 76.296875 -15.394531 74.414062 -12.660156 71.96875 -10.296875 C 69.519531 -7.929688 66.765625 -5.929688 63.703125 -4.296875 C 60.640625 -2.671875 57.363281 -1.429688 53.875 -0.578125 C 50.382812 0.273438 46.972656 0.703125 43.640625 0.703125 C 37.742188 0.703125 32.347656 -0.535156 27.453125 -3.015625 C 22.566406 -5.503906 18.359375 -8.742188 14.828125 -12.734375 C 11.304688 -16.734375 8.554688 -21.273438 6.578125 -26.359375 C 4.597656 -31.441406 3.609375 -36.617188 3.609375 -41.890625 Z M 3.609375 -41.890625 "/></g></g></g><g fill="#000000" fill-opacity="1"><g transform="translate(114.299815, 345.972083)"><g><path d="M 78.078125 -82.609375 L 78.078125 0 L 62.140625 0 L 62.140625 -35.25 L 24.671875 -35.25 L 24.671875 0 L 8.609375 0 L 8.609375 -82.609375 L 24.671875 -82.609375 L 24.671875 -49.21875 L 62.140625 -49.21875 L 62.140625 -82.609375 Z M 78.078125 -82.609375 "/></g></g></g><g fill="#000000" fill-opacity="1"><g transform="translate(234.736914, 345.972083)"><g><path d="M 8.609375 0 L 8.609375 -82.609375 L 24.671875 -82.609375 L 24.671875 0 Z M 8.609375 0 "/></g></g></g><g fill="#000000" fill-opacity="1"><g transform="translate(301.767552, 345.972083)"><g><path d="M 8.609375 0 L 8.609375 -82.609375 L 43.640625 -82.609375 C 47.441406 -82.609375 50.953125 -81.8125 54.171875 -80.21875 C 57.390625 -78.632812 60.160156 -76.539062 62.484375 -73.9375 C 64.804688 -71.34375 66.628906 -68.394531 67.953125 -65.09375 C 69.273438 -61.800781 69.9375 -58.488281 69.9375 -55.15625 C 69.9375 -51.664062 69.3125 -48.269531 68.0625 -44.96875 C 66.820312 -41.675781 65.078125 -38.75 62.828125 -36.1875 C 60.578125 -33.625 57.863281 -31.566406 54.6875 -30.015625 C 51.507812 -28.460938 48.019531 -27.6875 44.21875 -27.6875 L 24.671875 -27.6875 L 24.671875 0 Z M 24.671875 -41.765625 L 43.28125 -41.765625 C 46.226562 -41.765625 48.691406 -42.96875 50.671875 -45.375 C 52.648438 -47.78125 53.640625 -51.039062 53.640625 -55.15625 C 53.640625 -57.25 53.328125 -59.128906 52.703125 -60.796875 C 52.085938 -62.460938 51.273438 -63.878906 50.265625 -65.046875 C 49.253906 -66.210938 48.070312 -67.082031 46.71875 -67.65625 C 45.363281 -68.238281 43.988281 -68.53125 42.59375 -68.53125 L 24.671875 -68.53125 Z M 24.671875 -41.765625 "/></g></g></g></svg>