<svg id="object" xmlns="http://www.w3.org/2000/svg" viewBox="0 0 631.88 653.45"><defs><style>.cls-1{fill:#d0cd32;}.cls-2{fill:#fddb40;}.cls-3,.cls-4{fill:#30302f;}.cls-4,.cls-5{font-size:340.93px;font-family:Figtree-Regular, Figtree;}.cls-5{fill:none;stroke:#fff;stroke-miterlimit:10;stroke-width:3px;}</style></defs><path class="cls-1" d="M642.6,316.8H533.54V500.53H642.6A14.43,14.43,0,0,0,657,486.1V331.23A14.43,14.43,0,0,0,642.6,316.8Z" transform="translate(-79.95 -77.7)"/><path class="cls-2" d="M355.94,331.23V486.1a14.42,14.42,0,0,0,14.42,14.43H479.43V316.8H370.36A14.42,14.42,0,0,0,355.94,331.23Z" transform="translate(-79.95 -77.7)"/><path class="cls-2" d="M336.21,239.84v45.21a14.43,14.43,0,0,0,14.43,14.43H479.43l.05-74.07H350.64A14.43,14.43,0,0,0,336.21,239.84Z" transform="translate(-79.95 -77.7)"/><path class="cls-2" d="M662.32,225.41H533.24l.3,74.07H662.32a14.43,14.43,0,0,0,14.43-14.43V239.84A14.43,14.43,0,0,0,662.32,225.41Z" transform="translate(-79.95 -77.7)"/><rect class="cls-3" x="418.68" y="147.7" width="16.79" height="428.11"/><path class="cls-3" d="M457.5,100.29a15.81,15.81,0,0,0,1.62,2.42,11.12,11.12,0,0,0,.89,1l.55.58.57.58.47.54a25.86,25.86,0,0,1,2.1,3,86.6,86.6,0,0,1,4,7.78c2.54,5.56,4.85,11.51,7,17.52,8.79,24.14,16.33,49.3,25.22,74.14l.05.14a2.49,2.49,0,0,0,2.39,1.62,2.45,2.45,0,0,0,2.38-2.53,119.59,119.59,0,0,1,5.43-37.63,209.8,209.8,0,0,1,14.68-35.3c2.91-5.72,6-11.36,9.22-17l4.9-8.59c.83-1.47,1.65-3,2.48-4.54.41-.79.81-1.62,1.22-2.52l.66-1.53.23-.58a10.92,10.92,0,0,0,.21-7.06,11.83,11.83,0,0,0-1.93-3.61A15.88,15.88,0,0,0,538,85.27a29.4,29.4,0,0,0-6.22-2.88,68.52,68.52,0,0,0-10.85-2.67,148.93,148.93,0,0,0-20.78-2,143.15,143.15,0,0,0-21,.86,61.07,61.07,0,0,0-11.33,2.44,22.08,22.08,0,0,0-7.25,3.86,14.1,14.1,0,0,0-2.31,2.48,12.17,12.17,0,0,0-1.94,4.16,11.67,11.67,0,0,0-.14,5A12.58,12.58,0,0,0,457.5,100.29Zm20.36-5.91a128.44,128.44,0,0,1,18.36-1.06,144,144,0,0,1,18.47,1.2A63.08,63.08,0,0,1,523,96.21c.08,0,.13.05.2.06-.49,1.09-1,2.18-1.55,3.3l-4.34,8.82c-2.92,6-5.81,12-8.46,18.2-5.14,12.43-9.65,25.31-12.08,38.72-.13.65-.23,1.32-.34,2-.1-.56-.18-1.12-.28-1.68a363.92,363.92,0,0,0-9.13-39,185,185,0,0,0-6.86-19.35,82.45,82.45,0,0,0-4.87-9.79c-.48-.81-1-1.62-1.54-2.45C475.09,94.79,476.48,94.56,477.86,94.38Zm44,80.1c-2.74,5.3-5.23,10.71-7.53,16.21-1.15,2.75-2.24,5.54-3.14,8.43a35.08,35.08,0,0,0-1.12,4.49,11.49,11.49,0,0,0-.16,2.55,3.58,3.58,0,0,0,.57,1.75,2.14,2.14,0,0,0,1.08.77,2.49,2.49,0,0,0,.69.11h.41a140.94,140.94,0,0,0,17.65-2.22c5.83-1,11.66-2.18,17.45-3.6a211.75,211.75,0,0,0,34.48-11.1,115.16,115.16,0,0,0,16.65-9,61.42,61.42,0,0,0,15.16-13.95,39.56,39.56,0,0,0,5.63-10.32,33.4,33.4,0,0,0,2-12.66A35.56,35.56,0,0,0,619,133.6a45.24,45.24,0,0,0-2.63-5.31c-.51-.86-.94-1.59-1.56-2.5l-.76-1.12-.32-.44-.5-.67a35.61,35.61,0,0,0-9.36-8.76,29.37,29.37,0,0,0-13.36-4.38,33.5,33.5,0,0,0-12.72,1.63,47.7,47.7,0,0,0-10.1,4.68c-11.88,7.42-19.86,17.08-27.19,26.84A238.64,238.64,0,0,0,521.89,174.48Zm-9.49,31.86h0c-.06,0-.12,0-.15,0A.43.43,0,0,1,512.4,206.34ZM565,143.43a76.25,76.25,0,0,1,12.92-8c4.2-2,8.24-2.85,10.55-2.4a7,7,0,0,1,3,1.21,13,13,0,0,1,3.22,3.25c2.61,3.42,4,6.77,4.3,9.62s-.47,6.09-2.63,9.81a50.45,50.45,0,0,1-9.23,11,106.29,106.29,0,0,1-12.66,10.08A194.33,194.33,0,0,1,545,194.76a168.88,168.88,0,0,1-32.28,11.51,1.09,1.09,0,0,1,0-.17,9.32,9.32,0,0,1,.43-1.76,33.85,33.85,0,0,1,1.66-3.81c1.27-2.52,2.73-5,4.26-7.41a168.92,168.92,0,0,1,10.08-14A220.24,220.24,0,0,1,552.38,154,142.6,142.6,0,0,1,565,143.43Z" transform="translate(-79.95 -77.7)"/><text class="cls-4" transform="translate(1.61 576.94) scale(0.95 1)">Ch</text><text class="cls-5" transform="translate(1.5 576.94) scale(0.95 1)">Ch</text><text class="cls-4" transform="translate(439.1 576.94) scale(0.95 1)">p</text><text class="cls-5" transform="translate(439.1 576.94) scale(0.95 1)">p</text></svg>